<svg xmlns='http://www.w3.org/2000/svg' id="whatsapp" class='ionicon' viewBox='0 0 512 512'><title>Logo Whatsapp</title><path d='M414.73 97.1A222.14 222.14 0 00256.94 32C134 32 33.92 131.58 33.87 254a220.61 220.61 0 0029.78 111L32 480l118.25-30.87a223.63 223.63 0 00106.6 27h.09c122.93 0 223-99.59 223.06-222A220.18 220.18 0 00414.73 97.1zM256.94 438.66h-.08a185.75 185.75 0 01-94.36-25.72l-6.77-4-70.17 18.32 18.73-68.09-4.41-7A183.46 183.46 0 0171.53 254c0-101.73 83.21-184.5 185.48-184.5a185 185 0 01185.33 184.64c-.04 101.74-83.21 184.52-185.4 184.52zm101.69-138.19c-5.57-2.78-33-16.2-38.08-18.05s-8.83-2.78-12.54 2.78-14.4 18-17.65 21.75-6.5 4.16-12.07 1.38-23.54-8.63-44.83-27.53c-16.57-14.71-27.75-32.87-31-38.42s-.35-8.56 2.44-11.32c2.51-2.49 5.57-6.48 8.36-9.72s3.72-5.56 5.57-9.26.93-6.94-.46-9.71-12.54-30.08-17.18-41.19c-4.53-10.82-9.12-9.35-12.54-9.52-3.25-.16-7-.2-10.69-.2a20.53 20.53 0 00-14.86 6.94c-5.11 5.56-19.51 19-19.51 46.28s20 53.68 22.76 57.38 39.3 59.73 95.21 83.76a323.11 323.11 0 0031.78 11.68c13.35 4.22 25.5 3.63 35.1 2.2 10.71-1.59 33-13.42 37.63-26.38s4.64-24.06 3.25-26.37-5.11-3.71-10.69-6.48z' fill-rule='evenodd'/></svg>

<svg id="telegram" xmlns="http://www.w3.org/2000/svg" xmlns:xlink="http://www.w3.org/1999/xlink" aria-hidden="true" role="img" width="1em" height="1em" preserveAspectRatio="xMidYMid meet" viewBox="0 0 24 24"><g fill="none"><path fill-rule="evenodd" clip-rule="evenodd" d="M24 12c0 6.627-5.373 12-12 12S0 18.627 0 12S5.373 0 12 0s12 5.373 12 12zM12.43 8.859c-1.167.485-3.5 1.49-6.998 3.014c-.568.226-.866.447-.893.663c-.046.366.412.51 1.034.705c.085.027.173.054.263.084c.613.199 1.437.432 1.865.441c.389.008.823-.152 1.302-.48c3.268-2.207 4.955-3.322 5.061-3.346c.075-.017.179-.039.249.024c.07.062.063.18.056.212c-.046.193-1.84 1.862-2.77 2.726c-.29.269-.495.46-.537.504c-.094.097-.19.19-.282.279c-.57.548-.996.96.024 1.632c.49.323.882.59 1.273.856c.427.291.853.581 1.405.943c.14.092.274.187.405.28c.497.355.944.673 1.496.623c.32-.03.652-.331.82-1.23c.397-2.126 1.179-6.73 1.36-8.628a2.111 2.111 0 0 0-.02-.472a.506.506 0 0 0-.172-.325c-.143-.117-.365-.142-.465-.14c-.451.008-1.143.249-4.476 1.635z" fill="currentColor"/></g></svg>

